<?xml version="1.0" encoding="utf-8"?>
<!-- Generator: Adobe Illustrator 22.1.0, SVG Export Plug-In . SVG Version: 6.00 Build 0)  -->
<svg version="1.1" id="Layer_1" xmlns="http://www.w3.org/2000/svg" xmlns:xlink="http://www.w3.org/1999/xlink" x="0px" y="0px"
	 viewBox="0 0 238 61" style="enable-background:new 0 0 238 61;" xml:space="preserve">
<style type="text/css">
	.st0{fill:#4F566E;}
	.st1{fill:#56E4C4;}
</style>
<g>
	<g>
		<path class="st0" d="M101.7,12.3l-4.3,0.6c0.7,0.6,1.2,1.3,1.6,2.1c0.4,0.8,0.6,1.9,0.6,3.4c0,2.2-0.7,4-2.1,5.3
			c-1.4,1.4-3.6,2.1-6.6,2.1h-4.1c-2.1,0-3.3,0.7-3.3,2c0,0.6,0.3,1,0.7,1.3c0.4,0.3,1,0.3,1.6,0.3h7.2c2.8,0,5.1,0.6,6.5,1.7
			c1.5,1.1,2.1,2.9,2.1,5.4v0.8c0,2.4-0.8,4.2-2.3,5.5c-1.5,1.3-3.8,2-6.8,2h-7.1c-2.4,0-4.3-0.5-5.8-1.5c-1.5-1-2.2-2.5-2.2-4.4V38
			c0-1.2,0.3-2.3,1-3.3s1.6-1.6,2.7-2.1c-0.8-0.4-1.4-1-1.8-1.6c-0.4-0.7-0.6-1.5-0.6-2.2c0-1.2,0.3-2.1,1-3c0.7-0.8,1.7-1.4,3-1.6
			c-1.5-0.7-2.5-1.6-3.1-2.9c-0.6-1.2-1-2.6-1-4.1c0-2.7,0.9-4.7,2.5-6c1.6-1.3,4.1-1.9,7.4-1.9h13.2v3.2L101.7,12.3L101.7,12.3z
			 M86.8,33.6c-1.2,0-2.1,0.3-2.9,0.9c-0.8,0.6-1.1,1.4-1.1,2.4v0.7c0,1,0.3,1.8,1.1,2.3c0.7,0.5,1.7,0.8,3.1,0.8h5
			c1.5,0,2.5-0.3,3.4-0.9c0.8-0.5,1.2-1.4,1.2-2.4v-0.6c0-2.1-1.4-3.1-4.2-3.1L86.8,33.6L86.8,33.6z M93.6,20.5c0.6-0.7,1-1.6,1-2.8
			c0-1.5-0.3-2.6-1-3.3c-0.7-0.7-1.6-1-3-1H88c-1.4,0-2.4,0.3-3.1,1c-0.7,0.6-1,1.6-1,3.1c0,1.5,0.3,2.5,1,3.1c0.7,0.7,1.6,1,2.9,1
			h2.7C91.9,21.5,92.9,21.2,93.6,20.5z"/>
		<path class="st0" d="M109.1,32.6c-1.5-0.8-2.7-2-3.4-3.8c-0.7-1.8-1-4.3-1-7.5c0-3.3,0.3-5.8,1-7.6c0.7-1.8,1.7-3,3.2-3.8
			c1.5-0.7,3.6-1.1,6.4-1.1c2.4,0,4.3,0.3,5.7,0.7c1.4,0.5,2.4,1.3,3,2.5c0.6,1.2,1,2.8,1,5c0,2.2-0.6,3.9-1.9,4.8
			c-1.3,1-3.2,1.5-5.6,1.5h-7.1c0.1,1.5,0.3,2.7,0.6,3.7c0.3,0.9,1,1.5,1.9,1.9c1,0.4,2.2,0.6,4.1,0.6h7.4v3.4
			c-1.6,0.3-3.1,0.5-4.4,0.7s-2.7,0.3-4.4,0.3C112.7,33.8,110.6,33.4,109.1,32.6z M116.9,20c1.1,0,1.9-0.2,2.3-0.6
			c0.5-0.4,0.7-1.2,0.7-2.2c0-1.5-0.3-2.7-1-3.3s-1.9-1-3.6-1c-1.3,0-2.3,0.2-3,0.6c-0.7,0.4-1.2,1.1-1.5,2.1
			c-0.3,1-0.5,2.4-0.5,4.3L116.9,20L116.9,20z"/>
		<path class="st0" d="M129.9,9.2h4.6l1,2.6c1.1-0.9,2.4-1.5,3.9-2.1c1.5-0.6,2.8-0.9,4.3-0.9c2.7,0,4.6,0.8,5.8,2.3
			c1.2,1.5,1.8,3.6,1.8,6.2v16.2h-5.6V17.8c0-1.3-0.3-2.3-1.1-3c-0.7-0.7-1.7-1.1-2.9-1.1c-1.1,0-2.1,0.2-3.1,0.5
			c-1,0.3-1.9,0.9-2.9,1.5v17.6h-5.6L129.9,9.2L129.9,9.2z"/>
		<path class="st0" d="M160.5,32.3c-1.5-1-2.3-2.8-2.3-5.7V7.3c0-2.6,0.7-4.5,2.1-5.6c1.4-1.1,3.1-1.7,5.1-1.7
			c2.8,0,5.3,0.1,7.4,0.2c2.1,0.1,4.4,0.2,7.1,0.3v4.6h-12.6c-1,0-1.9,0.3-2.5,0.8c-0.6,0.5-0.9,1.3-0.9,2.4v5.9l13.9,0.3v4.4
			l-13.9,0.3V25c0,2.2,1.1,3.4,3.3,3.4h12.7V33c-3.8,0.3-8.4,0.5-13.8,0.6C163.9,33.8,162,33.2,160.5,32.3z"/>
		<path class="st0" d="M190.1,32.5c-1.9-0.9-3.4-2.5-4.3-5c-1-2.4-1.5-6-1.5-10.6c0-4.7,0.5-8.2,1.5-10.7c1-2.5,2.4-4.1,4.3-5.1
			c1.9-0.9,4.5-1.4,7.6-1.4c3.3,0,5.8,0.4,7.7,1.4c1.9,0.9,3.4,2.6,4.3,5.1s1.5,6,1.5,10.7s-0.5,8.2-1.5,10.6c-1,2.4-2.4,4.1-4.3,5
			c-1.9,0.9-4.5,1.3-7.7,1.3C194.5,33.8,192,33.3,190.1,32.5z M202.6,27.8c1.1-0.6,1.9-1.7,2.4-3.4c0.5-1.7,0.7-4.2,0.7-7.6
			c0-3.4-0.3-6.1-0.8-7.8c-0.5-1.7-1.3-2.8-2.4-3.4s-2.7-0.9-4.7-0.9c-2.1,0-3.6,0.3-4.6,0.9c-1.1,0.6-1.9,1.7-2.4,3.4
			c-0.5,1.7-0.8,4.3-0.8,7.8c0,3.4,0.3,5.9,0.7,7.6c0.4,1.6,1.3,2.8,2.3,3.4c1.1,0.6,2.7,1,4.8,1C199.9,28.8,201.4,28.4,202.6,27.8z
			"/>
		<path class="st0" d="M221.1,33.5c-2-0.2-3.6-0.4-5-0.7v-4.4c2.7,0.3,6.1,0.3,10.1,0.3c2.1,0,3.5-0.3,4.6-0.9
			c1-0.6,1.5-1.6,1.5-3.1v-1.5c0-1.2-0.3-2.1-1-2.7c-0.7-0.6-1.6-1-2.9-1h-3.1c-3.2,0-5.6-0.7-7.1-2.1c-1.5-1.4-2.4-3.6-2.4-6.8V9
			c0-3.2,0.9-5.5,2.7-7c1.7-1.5,4.4-2.2,7.8-2.2c1.5,0,3.3,0.1,5.2,0.3c1.9,0.2,3.4,0.4,4.8,0.7v4.4c-4.1-0.3-7.2-0.4-9.3-0.4
			c-1.9,0-3.4,0.3-4.3,1c-1,0.6-1.5,1.8-1.5,3.4v1.1c0,1.4,0.3,2.3,1.1,2.9c0.8,0.6,1.9,1,3.4,1h3.5c2.8,0,5,0.8,6.5,2.3
			c1.5,1.5,2.2,3.5,2.2,6v2.1c0,3.4-1,5.8-2.9,7.2c-2,1.3-4.7,2-8.3,2C225,33.8,223.1,33.7,221.1,33.5z"/>
	</g>
	<g>
		<polygon class="st0" points="33.4,17.5 33.4,7.4 15.7,25.1 15.7,25.1 49.1,25.1 49.1,43.5 31.2,61.4 42,61.4 56.7,46.7 56.7,17.5 
					"/>
	</g>
	<polygon class="st1" points="41,35.9 7.6,36 7.6,17.6 25.6,-0.4 14.7,-0.4 0,14.3 0,43.5 23.3,43.5 23.3,53.7 41,36 40.9,36 	"/>
	<g>
		<path class="st1" d="M177.3,48.9l2.3,9.5l2.4-9.5h2.3l2.4,9.4l2.5-9.4h2l-3.5,12.1h-2.1l-2.5-9.3l-2.4,9.3h-2.1l-3.5-12.1H177.3z"
			/>
		<path class="st1" d="M200.4,53.6c0.5-0.1,0.8-0.3,0.9-0.6c0.1-0.2,0.1-0.4,0.1-0.8c0-0.7-0.2-1.2-0.7-1.5
			c-0.5-0.3-1.2-0.5-2.1-0.5c-1.1,0-1.8,0.3-2.2,0.9c-0.2,0.3-0.4,0.8-0.5,1.4H194c0-1.5,0.5-2.5,1.4-3.1c0.9-0.6,2-0.9,3.2-0.9
			c1.4,0,2.6,0.3,3.5,0.8c0.9,0.5,1.3,1.4,1.3,2.5v6.9c0,0.2,0,0.4,0.1,0.5c0.1,0.1,0.3,0.2,0.5,0.2c0.1,0,0.2,0,0.3,0
			c0.1,0,0.2,0,0.4-0.1V61c-0.3,0.1-0.6,0.1-0.7,0.2c-0.2,0-0.4,0-0.7,0c-0.7,0-1.2-0.2-1.5-0.7c-0.2-0.3-0.3-0.6-0.3-1.1
			c-0.4,0.5-1,1-1.8,1.4c-0.8,0.4-1.6,0.6-2.6,0.6c-1.1,0-2-0.3-2.7-1c-0.7-0.7-1.1-1.5-1.1-2.5c0-1.1,0.3-2,1-2.6
			c0.7-0.6,1.6-1,2.7-1.1L200.4,53.6z M196.2,59.1c0.4,0.3,0.9,0.5,1.5,0.5c0.7,0,1.4-0.2,2.1-0.5c1.1-0.5,1.7-1.4,1.7-2.7v-1.6
			c-0.2,0.2-0.6,0.3-1,0.4c-0.4,0.1-0.8,0.2-1.1,0.2l-1.2,0.2c-0.7,0.1-1.3,0.3-1.7,0.5c-0.6,0.4-0.9,0.9-0.9,1.7
			C195.5,58.3,195.7,58.8,196.2,59.1z"/>
		<path class="st1" d="M207.8,44.4h2v16.5h-2V44.4z"/>
		<path class="st1" d="M213.9,44.4h2v16.5h-2V44.4z"/>
		<path class="st1" d="M227.3,49.2c0.8,0.4,1.4,0.9,1.8,1.6c0.4,0.6,0.7,1.3,0.8,2.1c0.1,0.6,0.2,1.4,0.2,2.7h-8.8
			c0,1.2,0.3,2.2,0.9,3c0.5,0.7,1.4,1.1,2.5,1.1c1,0,1.9-0.4,2.5-1.1c0.4-0.4,0.6-0.9,0.7-1.4h2c-0.1,0.4-0.2,0.9-0.5,1.5
			c-0.3,0.5-0.6,1-1,1.3c-0.6,0.6-1.4,1-2.3,1.2c-0.5,0.1-1,0.2-1.6,0.2c-1.5,0-2.8-0.5-3.8-1.6c-1-1.1-1.6-2.6-1.6-4.6
			c0-1.9,0.5-3.5,1.6-4.7c1-1.2,2.4-1.8,4.1-1.8C225.7,48.6,226.5,48.8,227.3,49.2z M228,53.9c-0.1-0.9-0.3-1.6-0.6-2.1
			c-0.6-1-1.5-1.5-2.8-1.5c-0.9,0-1.7,0.3-2.3,1c-0.6,0.7-1,1.5-1,2.6H228z"/>
		<path class="st1" d="M234,45.5h2v3.4h1.9v1.7h-1.9v7.9c0,0.4,0.1,0.7,0.4,0.8c0.2,0.1,0.4,0.1,0.8,0.1c0.1,0,0.2,0,0.3,0
			c0.1,0,0.2,0,0.4,0v1.6c-0.2,0.1-0.5,0.1-0.7,0.1c-0.3,0-0.5,0-0.8,0c-0.9,0-1.6-0.2-1.9-0.7c-0.3-0.5-0.5-1.1-0.5-1.9v-8h-1.6
			v-1.7h1.6V45.5z"/>
	</g>
	<rect x="77.5" y="54.7" class="st1" width="90.5" height="2.3"/>
</g>
</svg>
